<?xml version="1.0" encoding="utf-8"?>
<!-- Generator: Adobe Illustrator 27.7.0, SVG Export Plug-In . SVG Version: 6.00 Build 0)  -->
<svg version="1.1"
	 id="svg2" xmlns:dc="http://purl.org/dc/elements/1.1/" xmlns:inkscape="http://www.inkscape.org/namespaces/inkscape" xmlns:sodipodi="http://sodipodi.sourceforge.net/DTD/sodipodi-0.dtd" xmlns:svg="http://www.w3.org/2000/svg" xmlns:cc="http://creativecommons.org/ns#" xmlns:rdf="http://www.w3.org/1999/02/22-rdf-syntax-ns#" sodipodi:docname="Logo.ai"
	 xmlns="http://www.w3.org/2000/svg" xmlns:xlink="http://www.w3.org/1999/xlink" x="0px" y="0px" viewBox="0 0 18 18"
	 style="enable-background:new 0 0 18 18;" xml:space="preserve">
<style type="text/css">
	
		.st0{clip-path:url(#SVGID_00000062872371098393700990000006893540743591145640_);fill:url(#SVGID_00000172400752453051625650000008017409580542345144_);}
	.st1{fill:url(#path22_00000176759220215814465210000004476806623146750344_);}
	.st2{fill:url(#path26_00000060726369403298132850000013099360139058380173_);}
	.st3{fill:url(#path30_00000173157667599994618590000006855645832336691627_);}
	.st4{fill:url(#path34_00000034771991766174968730000005071229008084090789_);}
</style>
<g>
	<defs>
		<circle id="SVGID_1_" cx="9" cy="9" r="7"/>
	</defs>
	<clipPath id="SVGID_00000106846883624953270380000005356862197898005136_">
		<use xlink:href="#SVGID_1_"  style="overflow:visible;"/>
	</clipPath>
	
		<radialGradient id="SVGID_00000083089146644643543190000007250857968837789344_" cx="8.8315" cy="8.9356" r="9.2163" gradientUnits="userSpaceOnUse">
		<stop  offset="0" style="stop-color:#EEB717"/>
		<stop  offset="1" style="stop-color:#FDC114"/>
	</radialGradient>
	
		<rect x="-0.4" y="-0.3" style="clip-path:url(#SVGID_00000106846883624953270380000005356862197898005136_);fill:url(#SVGID_00000083089146644643543190000007250857968837789344_);" width="18.4" height="18.4"/>
</g>
<g id="Logo">
	
		<linearGradient id="path22_00000086689314645073521080000016395747095866309025_" gradientUnits="userSpaceOnUse" x1="4.5764" y1="7.0871" x2="13.4244" y2="7.0871">
		<stop  offset="0" style="stop-color:#000000"/>
		<stop  offset="1" style="stop-color:#322100"/>
	</linearGradient>
	<path id="path22" style="fill:url(#path22_00000086689314645073521080000016395747095866309025_);" d="M4.9,6.5
		c-0.2,0-0.3,0.1-0.3,0.3v0.9h8c0.4,0,0.8-0.4,0.8-0.8V6.5H4.9z"/>
	
		<linearGradient id="path26_00000091721264256320360540000011790458798983149491_" gradientUnits="userSpaceOnUse" x1="4.5756" y1="9.0074" x2="8.2876" y2="9.0074">
		<stop  offset="0" style="stop-color:#000000"/>
		<stop  offset="1" style="stop-color:#322100"/>
	</linearGradient>
	<path id="path26" style="fill:url(#path26_00000091721264256320360540000011790458798983149491_);" d="M4.6,8.7v0.9h2.9
		c0.4,0,0.8-0.4,0.8-0.8V8.4H4.9C4.7,8.4,4.6,8.5,4.6,8.7"/>
	
		<linearGradient id="path30_00000117647788645479797420000013657993973320525734_" gradientUnits="userSpaceOnUse" x1="4.5758" y1="10.9129" x2="5.8216" y2="10.9129">
		<stop  offset="0" style="stop-color:#000000"/>
		<stop  offset="1" style="stop-color:#322100"/>
	</linearGradient>
	<path id="path30" style="fill:url(#path30_00000117647788645479797420000013657993973320525734_);" d="M5.5,10.3H4.9
		c-0.2,0-0.3,0.1-0.3,0.3v0.9h1.2v-0.9C5.8,10.4,5.7,10.3,5.5,10.3"/>
	
		<linearGradient id="path34_00000176023830623192421330000011909037308195373244_" gradientUnits="userSpaceOnUse" x1="8.7506" y1="9.942" x2="13.3139" y2="9.942">
		<stop  offset="0" style="stop-color:#000000"/>
		<stop  offset="1" style="stop-color:#322100"/>
	</linearGradient>
	<path id="path34" style="fill:url(#path34_00000176023830623192421330000011909037308195373244_);" d="M13,8.4h-1.3
		c-0.2,0-0.3,0.1-0.3,0.3v0.6h0.8v1H10V8.7c0-0.2-0.1-0.3-0.3-0.3H8.8v2.3c0,0.4,0.4,0.8,0.8,0.8H10v0h2.1v0h0.7
		c0.3,0,0.5-0.2,0.5-0.5V9.3h0V8.7C13.3,8.5,13.2,8.4,13,8.4"/>
</g>
</svg>
