<svg xmlns="http://www.w3.org/2000/svg" viewBox="0 0 68.41 110.11"><defs><style>.cls-1{fill:#e4343e;}</style></defs><g id="Layer_2" data-name="Layer 2"><g id="Layer_1-2" data-name="Layer 1"><g id="Layer_2-2" data-name="Layer 2"><g id="Layer_1-2-2" data-name="Layer 1-2"><path class="cls-1" d="M65.47,40.27,47.21,12v0l-.05-.07-4.27-6.6C40.73,1.92,37.57,0,34.21,0H34a10.59,10.59,0,0,0-8.46,5.27l-22.57,35A17.81,17.81,0,0,0,.72,45.43,21.61,21.61,0,0,0,.2,48.07c-.06.46-.1.87-.12,1.26A20.82,20.82,0,0,0,2.17,60.39l8.06,12.52,6.69,10.36.23.33a10.44,10.44,0,0,0,8.46,4.92h.32c3.24-.11,6.27-2,8.36-5.26L51.17,57.11l0,0a12.43,12.43,0,0,0,1-9.9,10.37,10.37,0,0,0-1.12-2.44L40,27.55a6.94,6.94,0,0,0-5.81-3.43,7,7,0,0,0-5.82,3.43L17.32,44.73a12.16,12.16,0,0,0,0,12.51L25.9,70.56l3.41-5.28L30.14,64l6.24-9.68a8,8,0,0,1-7.74,2.9,8.08,8.08,0,0,1-5.23-3.92,5.17,5.17,0,0,1,0-4.66l8.85-13.74,0-.07.06-.09v0c.61-.87,1.3-1.4,1.83-1.4s1.28.59,1.9,1.53L45,48.64a5.12,5.12,0,0,1,.07,4.55L28.22,79.33a3.51,3.51,0,0,1-2.6,1.94,3.3,3.3,0,0,1-2.48-1.77L16.45,69.14l-.13-.2-.09-.15-.06-.08L8.51,56.85a14.19,14.19,0,0,1-1.12-7.66,13.36,13.36,0,0,1,.36-2,10.16,10.16,0,0,1,1.28-3l22.58-35a3.47,3.47,0,0,1,2.6-1.95c.85,0,1.79.69,2.59,1.95l22.57,35c2.33,3.61,2.33,10,0,13.58l-23,35.68h0a8,8,0,0,1-4.84,3.34,8.08,8.08,0,0,1-7.75-2.9l6.78,10.49,3.7,5.73,31.22-48.4a19.14,19.14,0,0,0,2.77-8.06A20.66,20.66,0,0,0,65.47,40.27Z"/></g></g></g></g></svg>