<?xml version="1.0" encoding="utf-8"?>
<svg viewBox="0 0 666.66669 666.66669" xmlns="http://www.w3.org/2000/svg">
  <path d="M 240.855 282.733 C 240.87 279.073 240.226 277.56 236.084 277.607 C 215.331 277.821 194.571 277.799 173.813 277.621 C 170.074 277.587 169.206 278.778 169.21 282.34 C 169.311 350.727 169.329 419.113 169.23 487.502 C 169.226 491.479 170.502 492.426 174.287 492.394 C 194.671 492.223 215.058 492.16 235.441 492.431 C 240.032 492.492 240.88 490.991 240.864 486.781 C 240.705 452.865 240.777 418.949 240.777 385.036 C 240.782 350.935 240.728 316.837 240.855 282.733 Z M 167.664 197.231 C 158.701 220.171 172.261 243.909 196.583 247.857 C 219.483 251.574 239.323 240.532 244.22 221.348 C 250.702 195.943 232.936 174.282 205.589 174.252 C 187.575 174.23 173.259 182.904 167.664 197.231 Z M 351.465 282.306 C 351.583 278.702 350.549 277.586 346.844 277.62 C 326.266 277.794 305.689 277.828 285.109 277.598 C 280.853 277.55 279.991 278.769 280.019 282.889 C 280.281 320.523 280.355 358.156 280.35 395.794 C 280.338 426.379 280.215 456.973 279.913 487.555 C 279.871 491.66 281.211 492.418 284.946 492.39 C 305.522 492.227 326.1 492.243 346.68 492.381 C 350.164 492.405 351.736 491.664 351.452 487.818 C 351.129 483.393 351.377 478.929 351.377 474.477 C 351.377 440.549 351.503 406.623 351.324 372.694 C 351.239 358.503 355.584 346.445 366.698 337.328 C 387.267 320.444 416.153 329.357 423.518 354.748 C 425.816 362.662 426.378 370.785 426.391 378.959 C 426.428 414.925 426.485 450.89 426.32 486.858 C 426.298 491.207 427.429 492.469 431.85 492.418 C 452.055 492.179 472.268 492.177 492.47 492.418 C 496.922 492.473 497.991 491.198 497.965 486.855 C 497.801 448.291 497.862 409.729 497.883 371.164 C 497.89 361.878 497.194 352.657 495.792 343.472 C 489.884 304.738 466.742 279.424 430.579 273.859 C 399.286 269.048 372.464 277.104 353.687 304.505 C 353.302 305.065 352.766 305.518 351.388 307 C 351.388 297.829 351.209 290.061 351.465 282.306 Z M 612.736 333.335 C 612.736 487.644 487.641 612.739 333.332 612.739 C 179.017 612.739 53.929 487.644 53.929 333.335 C 53.929 179.022 179.017 53.93 333.332 53.93 C 487.641 53.93 612.736 179.022 612.736 333.335 Z" style="fill-opacity: 1; fill-rule: evenodd; stroke: none; fill: rgb(228, 52, 62);" id="path30"/>
</svg>